<svg version="1.1" xmlns="http://www.w3.org/2000/svg" xmlns:xlink="http://www.w3.org/1999/xlink" width="336.808" height="336.808" viewBox="0,0,336.808,336.808"><g transform="translate(-71.596,-11.596)"><g data-paper-data="{&quot;isPaintingLayer&quot;:true}" stroke="none" stroke-width="1" stroke-linecap="butt" stroke-linejoin="miter" stroke-miterlimit="10" stroke-dasharray="" stroke-dashoffset="0" style="mix-blend-mode: normal"><path d="M71.596,180c0,-93.00696 75.39704,-168.404 168.404,-168.404c93.00696,0 168.404,75.39704 168.404,168.404c0,93.00696 -75.39704,168.404 -168.404,168.404c-93.00696,0 -168.404,-75.39704 -168.404,-168.404z" fill="#0077b8" fill-rule="evenodd"/><path d="M74.01299,151.5053c-0.27605,1.61337 -0.52757,3.23901 -0.75454,4.86465c0.22698,-1.65631 0.47849,-3.28195 0.75454,-4.86465z" fill="#74b140" fill-rule="evenodd"/><path d="M75.33804,149.62814c-0.50396,0.56898 -0.95181,1.18529 -1.33732,1.84035c0.22084,-1.28415 0.45395,-2.56013 0.69933,-3.82792v-0.03681c0.25151,-1.27597 0.5153,-2.53968 0.79135,-3.80338c0.4009,0.16352 0.77354,0.38917 1.10421,0.66866c0.68093,0.58278 1.42934,1.62564 1.2269,2.58262c-0.23925,1.14102 -1.71766,1.74833 -2.48447,2.57649z" fill="#74b140" fill-rule="evenodd"/><path d="M94.28134,98.97567c-0.85118,0.79476 -1.84648,1.41943 -2.93229,1.84035c0.61754,-1.16555 1.25144,-2.31884 1.90169,-3.45985c4.53585,-7.99239 9.7184,-15.60002 15.49572,-22.74669c0.93244,-1.15737 1.8792,-2.30452 2.84027,-3.44145c1.18519,0.32996 2.24207,1.01243 3.03044,1.9569c1.20236,1.46614 1.00606,2.24522 0.23311,3.47212c0.71252,-0.08824 1.41117,-0.26548 2.07959,-0.52757c0.80474,-0.20778 1.64906,-0.20778 2.4538,0c1.59497,0.44782 2.85867,1.69925 3.82792,2.9875c1.57656,2.09186 2.58262,4.59473 3.72977,6.93811l3.64389,7.44114c1.04286,2.12253 3.0243,6.71727 -0.04294,8.25702c-1.1396,0.49467 -2.46261,0.28414 -3.39237,-0.53984c-0.65639,-0.49689 -1.6011,-1.94463 -2.53968,-2.37405c0.31369,2.63515 1.04682,5.20317 2.17161,7.60677c0.18222,0.33852 0.1486,0.75251 -0.08587,1.05718c-0.23447,0.30468 -0.62604,0.4432 -0.99994,0.35375c-0.86114,-0.18814 -1.75042,-0.20896 -2.61943,-0.06134c0.44168,2.03052 0.39874,4.12238 -1.4416,5.49037c-0.25857,0.14695 -0.57029,0.16706 -0.84559,0.05454c-0.2753,-0.11252 -0.48371,-0.34519 -0.56534,-0.63118c-1.93915,-5.80624 -6.31072,-10.48016 -11.97452,-12.80268c-0.39055,-0.1373 -0.65188,-0.50619 -0.65188,-0.92017c0,-0.41398 0.26133,-0.78287 0.65188,-0.92017c2.18388,-0.57664 4.54566,-0.52757 6.66819,-1.31892c1.11385,-0.3481 2.07363,-1.06957 2.71758,-2.04278c0.5337,-0.99992 -0.01227,-2.00598 -0.30672,-3.01817c-1.03059,-3.51506 -2.54581,-8.37358 -7.01786,-8.47173c-4.33708,-0.11656 -3.41691,5.19591 -4.53952,7.97484c-0.96311,2.2943 -2.96909,4.02422 -5.52104,3.15926c-0.92631,-0.31286 -1.94463,-1.11648 -2.88934,-0.42328c-0.50393,0.50042 -0.89141,1.10572 -1.13488,1.77287c-0.55824,1.17782 -1.01833,2.39245 -1.94463,3.33716z" fill="#74b140" fill-rule="evenodd"/><path d="M155.50968,256.67498c1.46614,5.1039 -3.98128,7.76626 -5.63146,11.85183c-2.01825,4.97507 -0.04294,10.65561 -2.28816,15.63681c-0.89773,2.01583 -2.52657,3.61617 -4.55793,4.47818c-2.48447,1.11034 -5.00574,1.65631 -7.01172,3.62548c-3.66842,3.60095 -5.17137,9.17106 -7.58836,13.85781c-1.94463,-1.69925 -3.78498,-3.45372 -5.62533,-5.23885c-3.04271,-2.95069 -5.98726,-5.9934 -8.79686,-9.16493c-4.5202,-5.09 -8.72798,-10.44908 -12.60024,-16.04782c-10.09467,-14.58457 -17.80974,-30.67938 -22.85711,-47.68339l0.06748,0.03681c3.7175,-3.03044 6.02407,-9.23241 11.76595,-7.64357c0.28486,0.08522 0.51573,0.29498 0.6278,0.57039c0.11207,0.27541 0.09326,0.58677 -0.05116,0.84668c-0.15336,0.33126 -0.30059,0.66866 -0.45395,1.00606l9.81518,1.25757c2.71144,0.34353 6.30012,0.1779 8.23248,2.40472c0.82816,0.95698 1.25144,2.19001 2.05505,3.15926c1.01355,1.11314 2.3019,1.94031 3.7359,2.39859c2.36178,0.87723 4.9444,1.17169 7.26937,2.19001c1.95829,0.7742 3.65164,2.09693 4.87692,3.80952c0.53844,0.80543 0.87317,1.72961 0.97538,2.69304c0.14109,1.43547 -0.36193,2.24522 1.07354,3.22061c1.43547,0.97538 3.22061,1.65018 4.77263,2.4538c1.29438,0.67479 2.58262,1.39866 3.90154,2.01211c2.71758,1.30051 5.40449,0.82202 8.18341,1.62564c1.04934,0.32251 1.99793,0.90984 2.75439,1.70539c0.34648,0.40265 0.71728,0.7837 1.11034,1.14102c0.76681,0.60118 1.68698,0.58891 2.60716,0.76068c1.80354,0.3374 3.15313,1.23303 3.63775,3.03657z" fill="#74b140" fill-rule="evenodd"/><path d="M73.17348,184.12544c-0.47043,-0.26917 -1.04458,-0.28415 -1.5284,-0.03987c-0.04908,-1.36186 -0.04908,-2.71758 -0.04908,-4.08557c0,-1.27188 0.02454,-2.54581 0.07361,-3.82179c0,-0.40488 0,-0.81589 0,-1.2269c0.03067,-0.88337 0.06134,-1.77287 0.10429,-2.65623c0.02454,-0.5521 0.07975,-1.10421 0.07975,-1.65018c0.04908,-0.96311 0.11042,-1.87102 0.1779,-2.80346c0.04908,-0.76068 0.11656,-1.51522 0.1779,-2.26976l0.13496,-0.96925c0.24947,-2.76461 0.56642,-5.51286 0.95085,-8.24475c0.41715,0.49076 1.0674,0.66252 2.00598,0.10429c0.93858,-0.55824 1.34345,-1.63177 1.66245,-2.61329c0.61345,-1.87715 1.01833,-5.75415 3.40464,-6.3676c1.96304,-0.49689 2.87708,1.81581 2.97523,3.33716c0.01037,1.1543 -0.12986,2.30502 -0.41715,3.42305c2.67464,-2.19001 6.82155,-4.9444 2.40472,-7.44727c-1.3875,-0.72004 -2.47442,-1.90913 -3.06724,-3.35557c-0.80975,-1.75446 -1.80967,-2.76052 -3.77271,-3.06724c-0.70258,-0.10341 -1.41251,-0.14855 -2.12253,-0.13496c0.66252,-2.73598 1.39866,-5.45356 2.19001,-8.14047c0.06748,-0.22084 0.13496,-0.44168 0.1963,-0.65639c0.23925,-0.79748 0.48462,-1.59497 0.73614,-2.38632c0.09202,-0.27605 0.19017,-0.59505 0.28832,-0.8895c0.38034,-1.17782 0.77295,-2.35564 1.17782,-3.5212l0.61345,-1.72379l0.58278,-1.59497c0.26378,-0.6932 0.52757,-1.39253 0.79748,-2.08573c0.1595,-0.41101 0.31286,-0.82202 0.47236,-1.2269c0.48462,0.36193 0.95698,0.71774 1.39866,1.06127c4.61314,3.66229 8.39812,9.45325 7.17122,15.48345c1.37413,0 2.4906,-1.14102 2.90775,-2.50287c0.52757,-1.74833 0.00613,-3.66229 -0.39874,-5.38608c-0.07747,-0.29011 -0.017,-0.59972 0.16393,-0.83936c0.18093,-0.23964 0.46215,-0.38259 0.76238,-0.38753c2.23967,0.33122 4.4273,-0.86351 5.35922,-2.92685c0.93192,-2.06334 0.38197,-4.49452 -1.34727,-5.95589c-0.20961,-0.21124 -0.30979,-0.50751 -0.27141,-0.80261c0.03839,-0.2951 0.21104,-0.55588 0.46771,-0.70647c3.47836,-1.42486 5.92694,-4.6038 6.41668,-8.33064c0.01013,-0.34038 0.19596,-0.65119 0.49101,-0.82122c0.29505,-0.17003 0.65714,-0.17497 0.95673,-0.01307c3.12859,1.33732 6.73567,3.07951 8.17114,6.39214c0.81589,1.86488 0.09815,4.63154 2.22069,5.61306c2.51514,1.15942 5.05482,-0.80975 6.93811,-2.2943c0.28123,-0.25794 0.68647,-0.3295 1.03903,-0.18347c0.35256,0.14602 0.58853,0.48315 0.60502,0.8644c0.80898,7.41838 2.88387,14.64313 6.13449,21.36029c0.21153,0.37855 0.14589,0.85154 -0.16074,1.15817c-0.30663,0.30663 -0.77962,0.37228 -1.15817,0.16074c-1.74833,-0.93244 -4.01196,1.41093 -5.52104,2.098c-1.73606,0.79135 -3.42918,0.66252 -5.22658,0.13496c-2.30657,-0.67479 -4.33708,-1.38026 -6.74794,-0.76681c-1.68115,0.43168 -3.19674,1.35171 -4.35549,2.64396l5.87071,0.13496c0.30041,0.00547 0.58178,0.14824 0.76358,0.38746c0.18181,0.23922 0.24403,0.54853 0.16886,0.83944c-0.57422,2.91509 0.44164,5.91595 2.6685,7.88282c0.23393,0.246 0.32313,0.59594 0.2355,0.9239c-0.08762,0.32797 -0.33947,0.58678 -0.66492,0.68333c-1.6011,0.50303 -3.20834,1.11648 -4.84011,1.50908c-0.83301,0.29497 -1.75642,0.17897 -2.4906,-0.31286c-0.82202,-0.61958 -1.30665,-1.69312 -1.7606,-2.6501c-0.17058,0.3015 -0.37652,0.58158 -0.61345,0.83429c-1.01833,1.07354 -2.40472,1.23303 -3.74817,1.68698c-1.89556,0.63799 -4.07944,2.42926 -3.0243,4.66221c0.16487,0.30003 0.16151,0.66428 -0.00888,0.96121c-0.17039,0.29693 -0.48318,0.48363 -0.82541,0.49266c-3.74691,0.36187 -7.18153,2.24437 -9.50232,5.20818c-0.50303,0.61958 -1.38026,0.18403 -1.60724,-0.42941c-0.00332,-0.02031 -0.00332,-0.04103 0,-0.06134c0.04908,1.2453 0.47849,2.53968 0.3742,3.76658c-0.12868,1.21466 -0.62766,2.36039 -1.42934,3.28195c-1.97531,2.41085 -5.03028,3.2022 -7.53929,4.86465c-5.93205,3.91994 -0.38647,11.70461 -3.91994,16.89438c-0.15355,0.25492 -0.41508,0.4258 -0.71021,0.46404c-0.29513,0.03824 -0.59157,-0.06036 -0.80501,-0.26774c-1.35604,-1.60116 -2.18131,-3.58395 -2.36178,-5.6744c-0.09815,-1.26984 0.40488,-2.49674 0.31286,-3.72363c-0.03457,-0.54089 -0.33841,-1.02828 -0.80884,-1.29745z" fill="#74b140" fill-rule="evenodd"/><path d="M80.0984,204.54409c-1.65631,-0.45395 -3.31262,-0.59505 -4.64381,-1.78514c-0.88337,-0.78521 -1.4232,-1.74833 -2.59489,-2.12867c-0.15336,-1.2637 -0.29446,-2.52741 -0.42328,-3.80338c0.66252,0.22084 1.30051,0.50916 1.84035,0.74227c1.17774,0.51067 2.30698,1.12662 3.37397,1.84035c0.94471,0.63799 1.80967,1.55816 2.82187,2.07346c1.34959,0.68093 2.95069,0.3742 4.41683,0.36193c1.46614,-0.01227 2.92615,0.04908 4.39229,0.14109c0.76068,0.05521 1.36799,1.0674 0.68093,1.64404c-1.39866,1.17782 -3.01203,2.4722 -4.90759,2.63783c-1.96304,0.16563 -3.17153,-1.21463 -4.95667,-1.72379z" fill="#74b140" fill-rule="evenodd"/><path d="M93.81512,206.24335c1.80354,0.04908 4.12238,1.01219 2.96909,3.20834c-0.17064,0.29832 -0.49069,0.47953 -0.83429,0.47236c-1.99984,-0.12882 -3.60708,0.45395 -5.52104,0.76681c-0.91441,0.19165 -1.8675,0.02475 -2.66237,-0.46622c-0.28304,-0.04065 -0.53771,-0.1938 -0.7063,-0.42475c-0.1686,-0.23096 -0.23686,-0.52017 -0.18933,-0.80214c0.02294,-0.39665 0.25721,-0.75039 0.61345,-0.92631c0.57664,-0.72387 1.20236,-1.59497 2.06732,-1.84035c1.25144,-0.36193 2.98136,-0.02454 4.26347,0.01227z" fill="#74b140" fill-rule="evenodd"/><path d="M113.47616,68.89213c1.19418,-1.38639 2.42108,-2.74825 3.68069,-4.08557c0.13382,0.19305 0.24886,0.39847 0.34353,0.61345c0.92017,2.04278 -0.53984,3.61321 -2.60716,3.61321c-0.47523,-0.0114 -0.94892,-0.05857 -1.41707,-0.14109z" fill="#74b140" fill-rule="evenodd"/><path d="M121.42202,63.47101c-0.36255,0.1485 -0.77877,0.06566 -1.05683,-0.21034c-0.33332,-0.26454 -0.68833,-0.50053 -1.06127,-0.70547c0.92426,-0.94471 1.85875,-1.88329 2.80346,-2.81573c0,0.14723 0,0.29446 0,0.45395c-0.02454,0.79748 -0.07975,1.58883 -0.07975,2.38632c-0.00455,0.39176 -0.24307,0.74277 -0.60562,0.89127z" fill="#74b140" fill-rule="evenodd"/><path d="M123.59807,58.29173c1.15328,-1.09807 2.32497,-2.18388 3.50279,-3.25741c0.07361,-0.06134 0.14723,-0.12269 0.21471,-0.19017c1.0858,-0.97538 2.18388,-1.93236 3.29422,-2.88321l0.49076,-0.41715c1.0674,-0.89972 2.14707,-1.79741 3.23901,-2.69304l0.3742,-0.30059c1.20236,-0.96516 2.41699,-1.91396 3.64389,-2.8464c2.25136,0.50916 4.79104,0.43555 6.45962,2.38018c0.23362,0.24638 0.32332,0.59601 0.23715,0.92443c-0.08616,0.32842 -0.33594,0.58898 -0.66043,0.68894l-4.90759,1.36799c-1.28824,0.3558 -2.82187,0.56437 -3.97515,1.26984c-1.04286,0.63185 -1.39866,1.81581 -2.58262,2.26976c-0.99379,0.38647 -1.99984,0.19017 -3.0243,0.19017c-2.1164,0.03681 -1.36186,1.0674 -2.1164,2.39245c-0.39312,0.66929 -1.07134,1.12144 -1.84035,1.2269c-0.79135,0.16563 -1.59497,-0.12269 -2.34951,-0.12269z" fill="#74b140" fill-rule="evenodd"/><path d="M178.46494,99.78542c-1.17154,0.21837 -2.29774,0.63318 -3.33103,1.2269c-0.91404,0.58278 -1.51522,1.44774 -2.2943,2.17774c-1.47841,1.37413 -2.95682,1.46614 -4.90759,1.37413c-4.82784,-0.22698 -6.99332,4.55793 -8.50854,8.40425c-1.30665,3.31262 -2.73598,6.63138 -5.87684,8.58829c-0.29958,0.16871 -0.66587,0.16723 -0.96408,-0.00389c-0.29821,-0.17113 -0.4843,-0.48662 -0.4898,-0.8304c-0.14246,-1.76714 -1.25272,-3.3097 -2.88321,-4.00582c-0.83429,-0.34967 -1.84035,-0.44782 -2.4538,-1.15942c-0.76068,-0.84043 -0.49689,-1.72993 -0.43555,-2.74212c0.09815,-1.779 -0.58278,-3.15926 -1.34345,-4.73583c-1.0674,-2.20842 -1.70539,-4.33095 -1.39866,-6.78475c0.29446,-2.38632 1.2637,-4.61314 2.21455,-6.79701c1.09194,-2.58262 2.39859,-5.3002 2.4538,-8.17727c0.05521,-3.37397 -1.85262,-6.00567 -3.62548,-8.6803c-1.53362,-2.32497 -1.00606,-5.39835 -2.92002,-7.45954c-1.76309,-1.91824 -4.53559,-2.53299 -6.94424,-1.53976c-0.25857,0.14695 -0.57029,0.16706 -0.84559,0.05454c-0.2753,-0.11252 -0.48371,-0.34519 -0.56534,-0.63118c-0.24929,-1.05716 -0.04223,-2.17042 0.57051,-3.06724l-2.26976,-0.74227c-0.32444,-0.09806 -0.57472,-0.35751 -0.66103,-0.68527c-0.08632,-0.32776 0.0037,-0.67683 0.23775,-0.92197c0.38691,-0.48454 0.8537,-0.89947 1.38026,-1.2269c-1.0322,-0.92503 -1.63053,-2.23958 -1.65018,-3.62548c0.00335,-0.53052 0.43259,-0.95977 0.96311,-0.96311l6.03634,-0.03067l-0.79748,-2.99363c-0.08006,-0.29032 -0.02063,-0.60136 0.16083,-0.8417c0.18146,-0.24035 0.46433,-0.38269 0.76548,-0.38519c3.36783,0.3742 5.86457,-0.70547 8.88887,-1.93236c2.12253,-0.87723 4.54566,-0.83429 6.80928,-0.78521c2.01914,-0.03359 4.02492,0.33338 5.90138,1.07967c0.96346,0.43042 1.83745,1.03806 2.57649,1.79127l0.5521,0.61345c0.49689,0.39261 0.66252,0.39261 0.49689,0c0.09815,-0.22084 -0.16563,-0.92631 -0.13496,-1.2269c0.14723,-1.61951 1.69312,-2.57649 3.1654,-2.75439c1.47228,-0.1779 2.88321,0.30059 4.35549,-0.07361c1.28824,-0.3374 2.47833,-1.049 3.74204,-1.49682c1.90783,-0.67479 4.28187,-0.8895 5.80323,0.69933c0.67253,0.68451 1.05113,1.60461 1.05513,2.56422c3.07338,-0.61345 8.23248,-1.52749 8.63123,1.84035c0.08723,0.71164 -0.15699,1.42396 -0.66252,1.93236c0.6236,-0.01871 1.24586,0.0684 1.84035,0.25765c0.32449,0.09996 0.57427,0.36052 0.66043,0.68894c0.08616,0.32842 -0.00353,0.67805 -0.23715,0.92443c-1.79127,1.84648 0.96925,0.76681 1.88942,0.48462c0.97138,-0.29398 1.98613,-0.41849 2.99977,-0.36807c2.02378,0.10137 3.9605,0.85453 5.52104,2.14707c0.24944,0.24317 0.34593,0.60327 0.25151,0.93858c-0.73,2.95682 -4.25734,1.96917 -5.80936,3.96288c-0.92017,1.17782 -0.76681,2.96909 -0.98765,4.37389c-0.23841,1.30531 -0.75521,2.54394 -1.51522,3.63162c-1.93236,3.2022 0.84043,7.61904 -0.93858,10.96233c-0.7626,1.51178 -2.58953,2.1425 -4.12238,1.4232l-0.73614,1.02446c2.40984,2.19167 2.6538,5.89715 0.5521,8.38585c-0.18086,0.22141 -0.46639,0.32907 -0.74841,0.28219c0.27247,0.29301 0.31754,0.7312 0.11042,1.07354c-1.96917,3.55187 -6.0118,3.93221 -9.52686,4.76036z" fill="#74b140" fill-rule="evenodd"/><path d="M189.90576,115.00509c-1.76673,-0.14109 -4.28801,-0.53984 -5.38608,-2.10413c-1.2269,-1.75446 -0.10429,-4.69902 -1.91396,-6.09155c-0.52819,-0.73266 -0.52819,-1.72113 0,-2.4538c0.99992,-1.71766 2.2759,-1.19623 3.30036,-0.93244c0.89809,0.2365 1.7014,0.74419 2.30043,1.45387c1.049,1.21463 1.69925,1.85262 3.40464,1.39866c2.30043,-0.61345 4.18986,-2.6685 6.74794,-2.22069c1.90169,0.34967 1.66858,1.87715 1.35572,3.41691c-0.42328,2.10413 -0.93244,4.69288 -2.83413,5.95659c-2.09712,1.25647 -4.54127,1.80892 -6.97491,1.57656z" fill="#74b140" fill-rule="evenodd"/><path d="M233.28469,72.06013c-0.31928,-0.08696 -0.57213,-0.33081 -0.67061,-0.64672c-0.46622,-2.23295 -3.12859,-3.19607 -2.67464,-5.8155c0.38647,-2.28816 2.4538,-3.26355 4.55793,-2.90161c0.2775,0.04218 0.51138,0.22929 0.61345,0.49076c0.98152,-0.39874 1.93236,-1.54589 2.54581,-2.03052c0.72007,-0.59168 1.55588,-1.0263 2.4538,-1.27597c1.87102,-0.49689 3.88313,-0.1779 5.72348,0.28219c1.31892,0.33126 3.09792,0.71774 3.41691,2.28816c0.24538,1.28824 -0.85883,2.58875 -1.97531,2.92002c-1.11648,0.33126 -2.23295,-0.05521 -3.29422,-0.34353c-0.71774,-0.1779 -1.04286,-0.40488 -1.77287,0c-0.93244,0.53984 -0.57051,0.80975 -0.57051,1.76673c0.03067,1.89556 -0.30059,3.92607 -1.94463,5.11616c-0.98152,0.70547 -2.55808,0.99379 -3.46599,0c-0.41291,-0.44955 -0.57606,-1.07457 -0.43555,-1.66858l-0.04908,0.05521c-0.44782,0.54597 -1.05513,1.049 -1.55203,1.54589c-0.24509,0.22234 -0.58667,0.30427 -0.90595,0.21731z" fill="#74b140" fill-rule="evenodd"/><path d="M310.03746,221.83722c-2.36791,10.87645 -12.1831,17.32993 -17.70414,26.43351c-1.52493,2.41036 -2.58794,5.08348 -3.13472,7.88282c-0.57664,3.31262 0.24538,6.41668 0.74841,9.66796c0.61958,4.04876 0.19017,9.07291 -3.96288,11.09729c-1.049,0.5153 -2.25749,0.68706 -3.13472,1.63177c-0.87723,0.94471 -1.00606,2.34337 -1.11034,3.57027c-0.17177,2.03052 -0.20857,3.98128 -0.93858,5.91978c-1.59497,4.25734 -4.69902,7.94416 -7.46567,11.4899c-2.4906,3.19607 -4.39843,7.46567 -7.87055,9.72317c-2.22682,1.46001 -5.25112,1.62564 -7.83374,1.84035c-2.2943,0.18403 -5.50264,0.66252 -7.68652,-0.30672c-1.45387,-0.64412 -2.22682,-2.77892 -2.84027,-4.11011c-0.91901,-2.00376 -1.66403,-4.08283 -2.22682,-6.21424c-1.36799,-4.97507 -2.64396,-9.89493 -4.13465,-14.88227c-1.49068,-4.98734 -2.53968,-10.15871 -1.78514,-15.3669c0.42328,-2.93229 1.23917,-5.80323 0.95085,-8.79072c-0.251,-2.51197 -1.09175,-4.92914 -2.4538,-7.05466c-1.22076,-1.90169 -3.31876,-3.27582 -4.23893,-5.34314c-0.92017,-2.06732 -0.12882,-4.0917 0.61345,-6.06701c0.47236,-1.20849 1.06127,-2.68691 0.61345,-3.98742c-0.49076,-1.42934 -2.02438,-1.39866 -3.22061,-1.84035c-1.57043,-0.57664 -2.77892,-1.69925 -4.0733,-2.71758c-0.98765,-0.77908 -2.19001,-1.76673 -3.55187,-1.44774c-0.93244,0.22084 -1.66858,1.01219 -2.4538,1.55816c-1.71766,1.19623 -3.59481,1.28824 -5.61919,1.15328c-1.57043,-0.11042 -3.08565,-0.26378 -4.60087,0.28219c-1.00606,0.36193 -1.93236,0.92631 -2.90161,1.37413c-1.6011,0.73 -3.30036,1.22076 -5.05482,0.73c-2.00598,-0.55824 -3.54573,-2.098 -4.95053,-3.54573c-1.84035,-1.89556 -3.79111,-3.75431 -5.4781,-5.77869c-1.53976,-1.84035 -1.48455,-3.67456 -2.098,-5.86457c-0.58278,-1.99371 -2.4538,-2.68077 -3.68069,-4.20213c-1.01078,-1.18277 -1.08173,-2.90335 -0.17177,-4.16532c0.61958,-0.97538 1.48455,-1.71152 1.53362,-2.93842c0.02537,-1.31113 -0.7251,-2.5138 -1.91396,-3.06724c-0.29415,-0.17555 -0.47551,-0.49175 -0.47849,-0.83429c-0.18221,-3.45529 1.07219,-6.83217 3.46599,-9.33056c0.68093,-0.6932 1.52749,-1.19623 2.19615,-1.88329c0.92631,-0.95085 0.73614,-1.84648 0.92631,-2.9875c0.1867,-1.15336 1.06912,-2.07001 2.21455,-2.30043c1.4048,-0.39261 2.79733,-0.16563 3.76658,-1.47228c0.73,-0.99379 0.96311,-2.34337 1.2269,-3.52733c0.52757,-2.4538 1.07967,-4.87692 2.98136,-6.68046c4.72356,-4.47204 11.6862,-2.6317 17.46489,-3.03657c2.19662,-0.18338 4.32831,-0.83606 6.25104,-1.91396c1.19009,-0.61345 2.47833,-1.31278 3.85859,-1.31278c2.93842,-0.06134 3.71137,2.46606 4.87692,4.60087c0.99379,1.82808 2.59489,2.08573 4.43524,2.69918c1.25444,0.41373 2.42131,1.05644 3.44145,1.89556c1.38026,1.11034 2.76052,2.82187 4.56406,3.21447c0.91404,0.1963 2.58262,-0.09815 3.14086,-0.99992c-0.66866,-1.68085 0.72387,-3.43531 2.52741,-3.62548c1.63791,-0.18403 3.39237,0.59505 4.90759,1.04286l5.46583,1.60724c2.77892,0.82202 5.96272,1.42934 8.00551,3.46599c2.04278,2.03665 3.74817,4.54566 5.48423,6.84609c1.92149,2.49934 3.67961,5.12013 5.26339,7.84601c1.49682,2.6501 2.53968,5.49037 3.95061,8.17114c1.47841,2.8096 3.91994,4.52112 5.80936,6.97491c1.47228,1.90783 2.37405,5.1407 4.90759,5.89524c2.25136,0.66252 4.74809,-0.93244 6.74794,-1.72379c1.89556,-0.74841 3.86473,-1.2269 5.82776,-0.43555c0.45167,0.18302 0.70562,0.66499 0.60118,1.14102z" fill="#74b140" fill-rule="evenodd"/><path d="M308.08056,273.03566c-0.46484,1.98718 -1.20615,3.89933 -2.20228,5.68054c-1.13488,2.22069 -2.54581,4.07944 -3.11019,6.57004c-0.42328,1.86488 -0.69933,3.80952 -1.75446,5.45356c-1.30051,2.01825 -5.25726,4.12238 -6.48416,0.79135c-1.05513,-2.90161 -0.5521,-6.60071 1.61951,-8.79072c-0.76702,-2.80736 -0.18926,-5.8117 1.56429,-8.13433c1.20849,-1.56429 2.88321,-2.16547 4.37389,-3.49666c1.49068,-1.33118 2.39245,-3.17153 3.27582,-4.90759c0.22453,-0.36938 0.66653,-0.54543 1.08354,-0.43157c0.41701,0.11386 0.70821,0.4901 0.71387,0.92233c-0.11656,2.20228 1.33118,4.03649 0.92017,6.34306z" fill="#74b140" fill-rule="evenodd"/><path d="M202.35877,133.02822c0.15847,-0.42261 0.61524,-0.65233 1.049,-0.52757c0.43363,-0.09618 0.88523,-0.07286 1.30665,0.06748c0.29468,0.08823 0.52522,0.31877 0.61345,0.61345c0.74507,0.31449 1.41127,0.79005 1.95077,1.39253c1.049,1.22076 1.07967,2.93842 1.31278,4.45977c0.18403,1.18396 0.42941,2.31884 -0.89564,2.84027c-1.90125,0.68065 -3.87232,1.1477 -5.87684,1.39253c-1.18396,0.1595 -2.41699,-0.03067 -2.87708,-1.35572c-0.46009,-1.32505 0.40488,-2.32497 1.25757,-3.1654c0.47983,-0.41134 0.83829,-0.94584 1.03673,-1.54589c0.02211,-0.59128 0.00777,-1.18335 -0.04294,-1.77287c0.02781,-0.65885 0.24039,-1.29658 0.61345,-1.84035c0.15712,-0.2109 0.34296,-0.3988 0.5521,-0.55824z" fill="#74b140" fill-rule="evenodd"/><path d="M210.22319,131.3351c-0.72841,-1.6855 -0.90033,-3.55937 -0.49076,-5.34927c0.22698,-1.04286 0.75454,-1.779 1.87715,-1.84035c2.17774,-0.12269 2.61943,0.5337 3.45985,2.6501c0.8895,2.24522 2.84027,3.80338 3.72363,6.08541c0.45394,1.10208 0.63696,2.29696 0.5337,3.48439c-0.06134,0.60118 -0.26992,1.11648 -0.38647,1.72993c-0.21471,1.0858 0.04908,1.98757 0.1595,3.06724c0.22084,2.08573 -0.88337,2.55195 -2.63783,3.21447c-1.49682,0.5521 -4.82784,1.67472 -6.01793,-0.06134c-1.0674,-1.60724 0.49076,-4.68675 1.2269,-6.13449c0.8711,-1.64404 1.4416,-2.78506 0.25765,-4.39843c-0.65991,-0.74821 -1.23209,-1.56943 -1.70539,-2.44766z" fill="#74b140" fill-rule="evenodd"/><path d="M364.97182,226.80002c0.37615,0.97582 0.5088,2.02862 0.38647,3.06724c0.05472,1.06195 -0.01736,2.12664 -0.21471,3.17153c-0.42941,1.70539 -2.36791,2.53968 -3.68069,1.09194c-0.68706,-0.75454 -0.76068,-1.76673 -0.76068,-2.73598c-0.04294,-1.44774 0,-2.90161 0,-4.35549c0.00261,-0.15643 0.04257,-0.30997 0.11656,-0.44782c0.01774,-0.21112 0.10638,-0.41003 0.25151,-0.56437c1.16555,-1.30051 3.17767,-0.69933 3.90154,0.77295z" fill="#74b140" fill-rule="evenodd"/><path d="M397.53368,239.64564c-0.36193,0.94471 -0.6932,1.83421 -1.09807,2.828c-0.40488,0.99379 -0.80975,1.98757 -1.2269,2.96909c-0.72387,-1.10421 -1.4416,-2.20842 -2.17161,-3.31262l-2.87094,-4.34935c-0.87723,-1.32505 -1.71766,-2.81573 -3.28195,-3.39851c-1.01219,-0.01227 -1.36799,-1.61951 -0.25151,-1.88329h0.07361c0.08291,-0.02927 0.16978,-0.04581 0.25765,-0.04908c2.43539,-0.41101 4.23893,1.03059 5.84003,2.78506c1.48611,1.56433 3.06557,3.03726 4.72969,4.4107z" fill="#74b140" fill-rule="evenodd"/><path d="M283.62849,78.38218c2.38632,-2.83413 4.90759,-5.57012 7.36139,-8.35517l3.68069,-4.17145c0.96925,-1.11034 1.88329,-2.38632 3.11019,-3.25128c1.63791,-1.14715 4.00582,-1.26984 4.90759,0.79135c0.90177,2.06119 -0.40488,4.03649 -2.06119,5.19591c-2.88321,2.01825 -10.70468,8.96862 -7.42887,12.70453c1.18396,1.34959 0,5.1407 -0.70547,5.39222c-0.52757,1.12261 -3.39851,0.84656 -3.30649,0.61345c-1.9569,-0.47236 -2.18388,-0.52143 -3.68069,-1.96304c-1.89556,-1.82194 -3.78498,-4.61314 -1.87715,-6.95651z" fill="#74b140" fill-rule="evenodd"/><path d="M408.3856,180c-0.00409,1.27188 -0.02045,2.54377 -0.04908,3.81565c0,0.27605 0,0.5521 0,0.82202c-0.03067,1.09194 -0.07361,2.17161 -0.12269,3.25741c-0.02454,0.52143 -0.07975,1.04286 -0.07975,1.55816c-0.03681,0.72387 -0.08588,1.44774 -0.13496,2.16547c-0.06748,0.96311 -0.13496,1.87102 -0.21471,2.80346c-0.04294,0.15336 -0.04294,0.30059 -0.04294,0.45395c-0.13087,1.50499 -0.28219,3.00181 -0.45395,4.49045c-0.12678,1.1451 -0.26787,2.28612 -0.42328,3.42305c-0.21266,1.53771 -0.44373,3.07133 -0.6932,4.60087c-0.03681,0.25151 -0.07975,0.50303 -0.12269,0.75454c-0.1963,1.13693 -0.40079,2.26976 -0.61345,3.39851c-0.09202,0.47849 -0.1779,0.95698 -0.27605,1.42934c-0.11656,0.59505 -0.23925,1.17169 -0.36193,1.78514c-0.1963,0.94471 -0.40488,1.88942 -0.61345,2.828c-0.09815,0.42941 -0.20244,0.85883 -0.30672,1.28824c-0.20857,0.83429 -0.40488,1.64404 -0.61345,2.4538l-0.25765,1.04286c-0.60527,2.3352 -1.26166,4.65199 -1.96917,6.95038c-0.37625,1.2269 -0.76886,2.4538 -1.17782,3.68069v0.04908c-0.41306,1.2269 -0.83429,2.4538 -1.2637,3.68069c-1.86995,-2.34738 -3.40589,-4.94237 -4.56406,-7.71105c-1.13988,-2.818 -1.91501,-5.7701 -2.30657,-8.78459c-0.44168,-3.04271 -0.78521,-6.10995 -2.20228,-8.84593c-1.17782,0.95085 -2.71144,1.49068 -3.877,0.11656c-0.84656,-0.99379 -1.15328,-2.47833 -1.71766,-3.64389c-0.69186,-1.41605 -1.48314,-2.78133 -2.36791,-4.08557c-0.99992,-1.47228 -2.04278,-3.47212 -4.02422,-3.22674c-1.14715,0.14109 -1.91396,0.56437 -3.11019,0.17177c-0.79206,-0.2654 -1.49496,-0.74532 -2.03052,-1.38639c-0.61249,2.23406 -1.76725,4.28228 -3.3617,5.96272c-1.34345,1.32505 -2.9875,2.14094 -4.00582,3.77885c-0.8112,1.42526 -1.35585,2.98644 -1.60724,4.607c-1.03673,5.42902 -0.70547,12.63705 -6.55777,15.44051c-0.46087,0.25577 -1.04138,0.10457 -1.31892,-0.34353c-2.4538,-4.63154 -4.90759,-9.28762 -6.60071,-14.25655c-1.33118,-3.87086 -1.47228,-8.43492 -3.06724,-12.26898c-0.10429,0.5521 -0.20857,1.11034 -0.30672,1.66245c-0.08527,0.33103 -0.34376,0.58953 -0.67479,0.67479c-2.11026,0.28832 -3.43531,-0.91404 -4.56406,-2.58262c-1.57043,-2.32497 -2.92615,-4.80944 -4.34322,-7.26324l-0.15336,0.03067c-3.17153,0.3374 -6.34306,0.70547 -9.52073,1.01833c-2.02438,0.19017 -4.01809,0.25151 -5.70508,-1.03673c-1.01219,-0.74841 -1.71766,-1.87102 -2.85254,-2.41699c-0.36206,-0.16944 -0.74305,-0.29506 -1.13488,-0.3742c2.23295,3.05498 2.90161,8.19568 6.86449,8.98703c0.51123,0.14323 0.81209,0.6711 0.67479,1.18396c-4.56406,11.34267 -17.0048,14.6737 -27.82604,17.03548c-0.29091,0.07517 -0.60022,0.01294 -0.83944,-0.16886c-0.23922,-0.18181 -0.38199,-0.46317 -0.38746,-0.76358c-0.44782,-4.81557 -5.63146,-7.65584 -7.63744,-11.79662c-1.21463,-2.49674 -1.87102,-5.17751 -3.23901,-7.6313c-1.12875,-2.01211 -3.93834,-6.88903 -6.77861,-6.37987c-0.51102,0.12367 -1.02994,-0.17209 -1.18396,-0.67479c-0.69933,-2.67464 -4.27574,-4.25734 -3.2022,-7.435c0.53984,-1.61951 2.14707,-2.77279 3.06724,-4.17145c1.01228,-1.56961 1.66386,-3.34419 1.90783,-5.19591c-3.64389,-0.09815 -7.28777,-0.18403 -10.93166,-0.28832c-2.56422,-0.04908 -4.65608,-0.44168 -5.63146,-3.06724c-0.41101,-1.11034 -0.43555,-2.34337 -0.85883,-3.44758c-0.3374,-0.8895 -1.62564,-2.98136 -2.71758,-1.14102c-0.34353,0.52757 -0.06134,1.79127 0,2.36791c0.18403,1.71152 0.17177,4.0549 -1.6011,5.03028c-2.07959,1.14715 -3.57027,-1.09194 -4.20826,-2.72985c-0.63799,-1.63791 -0.84656,-3.44758 -1.60724,-5.03642c-0.80975,-1.68698 -2.2943,-2.68691 -3.76044,-3.74817l-4.81557,-3.48439c-0.29446,-0.21471 -1.92623,-1.69925 -2.23909,-1.59497c-1.19623,0.39261 0.12882,1.46614 0.48462,1.88329c2.33898,2.67017 5.21818,4.81337 8.44719,6.28785c0.32465,0.20163 0.50164,0.57427 0.45277,0.9533c-0.04886,0.37903 -0.31458,0.6946 -0.67975,0.8073c-1.53362,0.28832 -1.88329,2.2759 -2.4538,3.50279c-0.47016,1.10233 -1.28623,2.02176 -2.32497,2.61943c-2.20052,1.17838 -4.9165,0.74703 -6.64365,-1.05513c-0.26345,-0.27945 -0.33839,-0.68749 -0.19143,-1.04232c0.14696,-0.35483 0.48847,-0.59039 0.87236,-0.60172c0.64305,-0.01606 1.28258,-0.10037 1.90783,-0.25151c0.60297,-0.11166 1.13814,-0.45523 1.49068,-0.95698l-0.5153,-1.5827c-0.53984,-0.46622 -1.87715,-0.39261 -2.57649,-0.84043c-1.38026,-0.89564 -2.07959,-2.46606 -2.69304,-3.91994c-0.33336,-0.99705 -0.84695,-1.92441 -1.51522,-2.73598c-0.40799,-0.48498 -0.93713,-0.85326 -1.53362,-1.0674c-1.09807,-0.29446 -1.39866,0.47849 -2.01211,1.17782c-0.84043,0.94471 -1.78514,1.84035 -3.1654,1.2269c-1.25757,-0.56437 -1.79741,-2.1164 -1.91396,-3.39237c-0.04908,-0.52143 0.1595,-3.01203 -0.33126,-3.27582c-0.3558,-0.18403 -0.50916,1.78514 -0.50916,1.98757c0,1.15328 0.06748,2.50901 -0.61345,3.50893c-0.26664,0.40836 -0.65201,0.72522 -1.10421,0.9079c-0.22682,0.08097 -0.46477,0.12649 -0.70547,0.13496l0.61345,0.3374c0.28896,0.17741 0.46505,0.49215 0.46505,0.83122c0,0.33907 -0.17609,0.65382 -0.46505,0.83122c-1.50056,1.05898 -2.86817,2.29477 -4.0733,3.68069c-1.15328,1.43547 -1.32505,2.94455 -1.98144,4.57019c-1.01219,2.42312 -4.82784,3.1838 -7.14668,3.21447c-2.83413,0.06134 -5.04255,-1.71766 -6.07928,-4.29414c-1.16555,-2.89548 -0.50916,-6.01793 0.30059,-8.93182h-0.54597c-1.2269,-0.04908 -1.2269,-1.97531 0,-1.92623c2.05101,0.1043 4.10729,-0.0088 6.13449,-0.3374c1.63791,-0.27605 3.79111,-0.58891 5.05482,-1.74219c1.96917,-1.779 0.11042,-3.41691 -1.2269,-4.72969l-4.08557,-4.02422c-0.26345,-0.27945 -0.33839,-0.68749 -0.19143,-1.04232c0.14696,-0.35483 0.48847,-0.59039 0.87236,-0.60172c2.59489,0 5.27566,-0.04908 7.76626,-0.86496c2.96909,-0.96925 4.36776,-2.97523 5.63146,-5.70508c1.90169,-4.12851 5.86457,-6.77861 10.34275,-5.52104c0.26302,-0.10064 0.55972,-0.05392 0.77908,0.12269c1.15328,0.84043 2.21455,1.44774 3.50893,0.52757c0.44782,-0.32513 0.77295,-0.80975 1.25757,-1.12261c1.11838,-0.64217 2.36468,-1.02968 3.65002,-1.13488c1.48455,-0.1963 3.06111,-0.18403 4.48431,-0.68706c2.40472,-0.84656 2.8464,-2.80346 2.4538,-5.07936c-0.50916,-2.98136 1.33118,-4.91373 4.18986,-5.43516c1.81581,-0.3374 3.65002,-0.18403 5.41675,-0.79748c1.40456,-0.51363 2.66636,-1.35483 3.68069,-2.4538c-3.11706,-0.71743 -6.38646,-0.33152 -9.25081,1.09194c-0.96311,0.48462 -1.84648,1.12261 -2.95682,0.66866c-0.93528,-0.47948 -1.6653,-1.28141 -2.05505,-2.25749c-0.92017,-1.95077 -0.66252,-4.26347 0.11042,-6.21424c0.42128,-1.06726 0.99577,-2.06745 1.70539,-2.96909c0.79748,-1.03059 2.03665,-2.19001 2.28203,-3.41691c0.24538,-1.2269 -0.73614,-2.53354 -2.04892,-1.84035c-0.68389,0.44776 -1.21971,1.08818 -1.53976,1.84035c-0.52443,1.16509 -1.13978,2.28708 -1.84035,3.35557c-0.87723,1.19009 -1.99984,2.21455 -2.75439,3.49052c-1.03673,1.74833 -0.88337,3.15926 0.07975,4.87078c1.32505,2.36178 0.1963,4.0549 -0.20244,6.5455c-0.39261,2.25136 -0.86496,4.4475 -3.06724,5.56398c-1.68085,0.85269 -3.61321,0.45395 -4.45977,-1.30665c-0.54597,-1.14715 -0.5153,-2.50287 -0.83429,-3.72977c-0.27705,-1.07037 -0.68933,-2.10108 -1.2269,-3.06724c-1.68085,2.1164 -2.86481,5.23272 -5.97499,5.12843c-3.37397,-0.11042 -5.39222,-4.29414 -6.04247,-7.12214c-0.77908,-3.3801 0.85269,-5.6744 3.74817,-7.22029c3.67456,-1.96304 6.17743,-4.48431 8.76005,-7.72946c2.85668,-3.49919 5.51897,-7.15267 7.97484,-10.94393c1.76673,-2.78506 3.90767,-5.23885 7.52702,-4.90759c3.88927,0.34967 7.46567,2.99363 11.14637,4.14078c3.17153,0.98152 6.99945,1.26984 9.71703,3.34943c0.98765,0.77908 2.18388,1.90783 1.72379,3.23288c-0.43001,1.04863 -1.28349,1.86646 -2.34951,2.25136c-2.99363,1.23303 -5.64986,-0.43555 -8.51467,-1.049c1.13788,2.69446 3.6019,4.59774 6.49642,5.01801c0.87768,0.13733 1.77373,0.1019 2.63783,-0.10429c1.4232,-0.36193 1.87715,-1.54589 2.4538,-2.77279l2.79119,-5.86457c0.47236,-0.98152 2.14707,-0.26992 1.7606,0.74227c-0.03675,0.07385 -0.06952,0.14962 -0.09815,0.22698v0.04294c-0.29446,0.84043 0.34353,1.23917 1.92623,1.19009c0.11656,-0.19017 0.23925,-0.38034 0.36193,-0.57051c0.21943,-0.44137 0.38029,-0.9095 0.47849,-1.39253c0.20942,-0.71319 0.52367,-1.3913 0.93244,-2.01211c0.87166,-1.12245 2.05643,-1.96139 3.40464,-2.41085c4.03649,-1.55816 8.69871,-2.05505 12.99285,-2.72371c0.03681,-1.84648 1.62564,-3.01817 3.54573,-2.95069c1.42802,0.16302 2.83461,0.47765 4.19599,0.93858l3.88927,0.94471c-1.27597,-2.45993 -2.57035,-4.91986 -3.68069,-7.435c-0.77908,-1.76673 -1.0858,-4.11624 0.78521,-5.34314c2.06119,-1.36186 4.01196,0.59505 4.90759,2.31884c0.73,1.4048 1.34959,2.57035 2.71144,3.47826c0.71198,0.46042 1.46577,0.85271 2.25136,1.17169c-0.18403,-2.03665 0.23925,-4.2512 2.17161,-4.81557c-0.21519,-0.79902 -0.29604,-1.62826 -0.23925,-2.4538c0.00666,-0.34191 0.19189,-0.65537 0.48819,-0.82612c0.2963,-0.17075 0.66038,-0.17385 0.95955,-0.00817c2.07346,1.21463 4.31868,2.47833 6.71727,2.39859c-1.83421,-1.82808 -4.45364,-3.31876 -4.14078,-6.23878c0.30059,-2.58262 2.61943,-3.72977 4.90759,-4.29414c-0.8895,-1.78514 -0.20857,-4.06717 1.19009,-5.57625c2.33724,-2.52741 5.94432,-4.01196 9.05451,-5.30633c0.95698,-0.39261 1.92623,-0.77295 2.88934,-1.14715c1.25144,-0.47849 2.26363,-0.98152 2.30657,-2.38018c0.03067,-1.10421 -0.21471,-2.33724 0.39874,-3.33716c0.36976,-0.75334 1.15608,-1.21061 1.99371,-1.15942c0.9897,0.81793 1.97326,1.63586 2.95069,2.4538c0.96107,0.81793 1.91396,1.63586 2.85867,2.4538l0.06748,0.05521c0.93653,0.8302 1.86488,1.67063 2.78506,2.52128l0.06748,0.06134c0.92426,0.85883 1.8383,1.72584 2.74212,2.60102c0.39874,0.41715 0.81589,0.81589 1.2269,1.2269c8.70224,8.60153 16.44439,18.12289 23.09022,28.39655c0.73614,1.13284 1.45592,2.27385 2.15934,3.42305c-0.00117,0.01429 -0.00117,0.02865 0,0.04294c0.69524,1.14102 1.37821,2.28816 2.04892,3.44145l0.05521,0.08588c0.65639,1.13488 1.32505,2.28816 1.9385,3.44145l0.07975,0.13496c0.61345,1.14102 1.2269,2.28816 1.84035,3.44145l0.10429,0.19017c0.58278,1.13488 1.15328,2.28203 1.71766,3.42918l0.12269,0.25151c0.54802,1.13693 1.08376,2.2759 1.60724,3.41691c0.04908,0.11042 0.10429,0.21471 0.15336,0.31899c0.50916,1.12261 1.00606,2.25749 1.49682,3.39237l0.17177,0.39261c0.47236,1.11034 0.92631,2.22682 1.38026,3.34943l0.19017,0.47849c0.44168,1.09807 0.85883,2.20842 1.27597,3.31876c0.06748,0.18403 0.14109,0.36807 0.20857,0.55824c0.40488,1.0858 0.78521,2.17774 1.16555,3.27582l0.22698,0.64412c0.35989,1.07558 0.7116,2.15321 1.05513,3.23288c0.07975,0.24538 0.16563,0.48462 0.23925,0.73c0.34353,1.05513 0.64412,2.12253 0.95698,3.1838c0.07975,0.27605 0.16563,0.54597 0.23925,0.81589c0.30059,1.03673 0.57664,2.07959 0.85269,3.12859c0.08588,0.30672 0.17177,0.60731 0.25151,0.92017c0.26378,1.01833 0.50916,2.04278 0.75454,3.06724c0.07975,0.3374 0.16563,0.67479 0.24538,1.01219c0.23311,1.00606 0.44782,2.01211 0.66252,3.0243c0.07975,0.36807 0.16563,0.73 0.23925,1.09194c0.20244,0.98765 0.38647,1.97531 0.57664,2.96909c0.07361,0.39261 0.15336,0.79135 0.22698,1.19009c0.17177,0.96311 0.33126,1.9385 0.48462,2.91388c0.06748,0.42328 0.14723,0.84656 0.21471,1.26984c0.14109,0.95698 0.26992,1.9201 0.40488,2.88321c0.06134,0.44782 0.12882,0.8895 0.18403,1.33732c0.12269,0.95698 0.22698,1.91396 0.33126,2.87094c0.05521,0.46009 0.11042,0.92017 0.1595,1.38026c0.09815,0.95698 0.1779,1.9201 0.25765,2.87708c0.03681,0.47236 0.08588,0.93858 0.12269,1.41093c0.07975,0.99379 0.13496,1.99984 0.1963,3.0059c0.02454,0.43555 0.07975,0.86496 0.07975,1.30051c0.05521,1.0858 0.12269,2.17161 0.12269,3.25741c0.01227,0.36193 0.04294,0.72387 0.04294,1.07967c0,1.47228 0.00205,2.9282 0.00613,4.36776zM287.46868,159.65803c-0.65905,-0.79225 -1.53547,-1.3744 -2.52128,-1.67472c-0.67479,-0.25151 -1.38639,-0.39874 -2.06732,-0.65026c-0.53415,-0.16479 -1.03037,-0.43375 -1.46001,-0.79135c-0.17667,-0.15492 -0.27797,-0.37848 -0.27797,-0.61345c0,-0.23497 0.1013,-0.45853 0.27797,-0.61345c0.32513,-1.34345 1.95077,-3.57641 -0.50303,-3.96288c-1.33118,-0.19017 -2.96909,0.3742 -4.29414,0.61345c-1.40275,0.25356 -2.80346,0.52143 -4.20213,0.80362c-0.23632,-0.22472 -0.56883,-0.31739 -0.88732,-0.2473c-0.31849,0.07009 -0.58137,0.29379 -0.70152,0.59696c-1.12261,3.03044 -2.6501,6.50256 -2.96296,9.7477c-0.20244,2.12867 1.55816,3.30036 3.5396,2.4906c1.43547,-0.58278 2.52128,-1.63791 4.06103,-2.08573c1.7606,-0.50303 3.28809,-0.5521 4.76036,0.61345c1.61951,1.28211 4.46591,1.14102 6.30625,0.30672c1.82808,-0.84043 2.12867,-2.98136 0.93244,-4.53339zM300.46153,165.66983c0.22084,2.20842 2.14707,3.94448 3.95675,5.02415c1.56429,0.93244 3.75431,1.33118 5.09776,-0.3558c1.34345,-1.68698 0.17177,-3.17153 -0.90177,-4.50272c-0.42328,-0.52143 -0.65639,-0.10429 -0.30059,-0.8711c0.11656,-0.1963 0.47236,-0.40488 0.61345,-0.58278c0.28185,-0.3403 0.49067,-0.73496 0.61345,-1.15942c0.24489,-0.82115 0.00779,-1.71025 -0.61345,-2.30043c-1.049,-0.92631 -2.40472,-0.97538 -3.29422,-2.23909c-0.85634,-1.35551 -1.24425,-2.95457 -1.10421,-4.55179c0.95972,-0.77625 1.2528,-2.11424 0.70547,-3.22061c-0.77908,-1.68698 -2.93842,-2.15321 -4.61314,-1.68698c-4.69902,1.31278 -4.85238,6.65592 -2.31884,9.99922c0.65639,0.85883 3.09178,2.60716 2.85867,3.83406c-0.18403,0.95085 -0.79135,1.51522 -0.69933,2.61329zM315.19657,188.87047h-0.17177c-2.18788,0.11866 -4.37402,-0.26318 -6.39214,-1.11648c-2.25749,-1.049 -3.49666,-2.70531 -5.13457,-4.45977c-0.41715,-0.44782 -1.34345,-1.4416 -2.07346,-1.03059c-0.84656,0.47236 0.07361,1.87715 0.34967,2.39859c0.60018,1.16397 1.30225,2.27251 2.098,3.31262c1.52749,1.88942 3.59481,3.57641 6.13449,3.68069c2.12867,0.08588 4.34322,-0.82816 5.18978,-2.78506z" fill="#74b140" fill-rule="nonzero"/></g></g></svg>